<svg xmlns="http://www.w3.org/2000/svg" width="96" height="73" viewBox="0 0 96 73">
  <defs>
    <style>
      .cls-1 {
        fill: #fff;
        fill-rule: evenodd;
      }
    </style>
  </defs>
  <path id="Restaurant.svg" class="cls-1" d="M765.054,700.361c-0.165.179-.335,0.362-0.509,0.557A5.567,5.567,0,0,0,763,704.444c0,0.485.256,4.027,0.526,7.777,0.587,8.137,1.474,20.434,1.474,24.685a8,8,0,1,1-16,0c0-4.251.887-16.548,1.474-24.685,0.27-3.75.526-7.292,0.526-7.777a5.567,5.567,0,0,0-1.545-3.526c-0.173-.2-0.344-0.378-0.509-0.557-1.725-1.858-2.946-3.526-2.946-8.083V675.042a2,2,0,1,1,4,0v17.236c0,3.3.661,4.013,1.859,5.3,0.185,0.2.375,0.4,0.569,0.622a9.536,9.536,0,0,1,2.572,6.24c0,0.605-.174,3.047-0.537,8.073C753.881,720.6,753,732.8,753,736.906a4,4,0,1,0,8,0c0-4.1-.881-16.311-1.463-24.389-0.363-5.026-.537-7.468-0.537-8.073a9.542,9.542,0,0,1,2.572-6.24c0.194-.218.384-0.422,0.569-0.622,1.2-1.291,1.859-2,1.859-5.3V675.042a2,2,0,1,1,4,0v17.236C768,696.835,766.779,698.5,765.054,700.361ZM760,690.25a2.015,2.015,0,0,1-2-2.028v-13.18a2,2,0,1,1,4,0v13.18A2.014,2.014,0,0,1,760,690.25Zm-6,0a2.015,2.015,0,0,1-2-2.028v-13.18a2,2,0,1,1,4,0v13.18A2.014,2.014,0,0,1,754,690.25ZM720,745a33.685,33.685,0,0,1-26.543-12.928,2.046,2.046,0,0,1,.309-2.85,1.982,1.982,0,0,1,2.812.314,29.739,29.739,0,0,0,45.807,1.243,1.98,1.98,0,0,1,2.824-.162,2.047,2.047,0,0,1,.159,2.863A33.844,33.844,0,0,1,720,745Zm0-12.167a22.179,22.179,0,0,1-22-22.3,22.419,22.419,0,0,1,3.735-12.437,1.984,1.984,0,0,1,2.776-.551,2.047,2.047,0,0,1,.543,2.815A18.333,18.333,0,0,0,702,710.528a18.147,18.147,0,0,0,18,18.25,17.6,17.6,0,0,0,8.1-1.945,1.988,1.988,0,0,1,2.687.9,2.042,2.042,0,0,1-.885,2.724A21.528,21.528,0,0,1,720,732.833Zm0-40.555a17.635,17.635,0,0,0-7.667,1.733,1.989,1.989,0,0,1-2.662-.969,2.04,2.04,0,0,1,.956-2.7A21.563,21.563,0,0,1,720,688.222a22.371,22.371,0,0,1,17.891,35.289,1.981,1.981,0,0,1-2.791.467,2.047,2.047,0,0,1-.46-2.83A18.3,18.3,0,0,0,720,692.278Zm19.807-4.6a29.724,29.724,0,0,0-43.229,3.838,1.983,1.983,0,0,1-2.812.314,2.048,2.048,0,0,1-.309-2.851,33.687,33.687,0,0,1,48.992-4.345,2.046,2.046,0,0,1,.181,2.861A1.98,1.98,0,0,1,739.807,687.682ZM683,745a7.048,7.048,0,0,1-7-7.08V717.527l-3.429-3.553a2.044,2.044,0,0,1-.565-1.578c0.074-.947,1.821-23.249,2.664-28.414,1.272-7.783,6.616-11.982,11-11.982A4.235,4.235,0,0,1,690,676.282l0,61.638A7.048,7.048,0,0,1,683,745Zm2.934-68.912a0.83,0.83,0,0,0-.266-0.032c-2.278,0-6.094,2.729-7.051,8.589-0.723,4.42-2.206,22.813-2.55,27.152l3.363,3.485A2.045,2.045,0,0,1,680,716.7v21.22a3,3,0,1,0,6,0l0-61.6A0.694,0.694,0,0,0,685.934,676.088Z" transform="translate(-672 -672)"/>
</svg>

