<svg xmlns="http://www.w3.org/2000/svg" width="60" height="96" viewBox="0 0 60 96">
  <defs>
    <style>
      .cls-1 {
        fill: #fff;
        fill-rule: evenodd;
      }
    </style>
  </defs>
  <path id="Pharmacy.svg" class="cls-1" d="M430.678,728.684c-5.675,6.233-11.543,12.677-14.626,22.865a2.146,2.146,0,0,1-4.1,0c-3.083-10.19-8.953-16.625-14.63-22.848C390.469,721.192,384,714.1,384,701.824a30,30,0,0,1,60-.15c0,0.022,0,.044,0,0.067v0.126c0,0.035,0,.07,0,0.106C443.927,714.132,437.49,721.2,430.678,728.684ZM414,676.267a25.664,25.664,0,0,0-25.714,25.557c0,10.626,5.656,16.828,12.206,24.008,4.707,5.162,9.932,10.89,13.508,18.955,3.574-8.065,8.8-13.8,13.5-18.968,6.543-7.185,12.191-13.39,12.21-23.988A25.688,25.688,0,0,0,414,676.267Zm6.429,40.533H407.571v-8.533H399v-12.8h8.571v-8.534h12.858v8.534H429v12.8h-8.571V716.8Zm4.285-12.8v-4.267h-8.571V691.2h-4.286v8.533h-8.571V704h8.571v8.533h4.286V704h8.571Zm-24.188,39.687a2.135,2.135,0,1,1,.858,4.182c-9,1.83-13.1,5.083-13.1,7.331,0,3.564,9.783,8.533,25.714,8.533s25.714-4.969,25.714-8.533c0-2.248-4.1-5.5-13.1-7.331a2.135,2.135,0,1,1,.858-4.182C437.823,745.793,444,750.1,444,755.2c0,8.314-15.456,12.8-30,12.8s-30-4.486-30-12.8C384,750.1,390.177,745.793,400.526,743.687Z" transform="translate(-384 -672)"/>
</svg>

