<svg xmlns="http://www.w3.org/2000/svg" width="86" height="96" viewBox="0 0 86 96">
  <defs>
    <style>
      .cls-1 {
        fill: #fff;
        fill-rule: evenodd;
      }
    </style>
  </defs>
  <path id="Car_service.svg" class="cls-1" d="M663.2,716.926l-5.169,1.289,2.139,3.2a7.1,7.1,0,0,1,.688,3.69v12.256a8.117,8.117,0,0,1-2.047,5.386v6.869a4.1,4.1,0,0,1-4.1,4.085H640.381a4.094,4.094,0,0,1-4.1-4.085v-4.085H611.714v-4.085h40.953a4.1,4.1,0,0,0,4.095-4.085V725.106a9.258,9.258,0,0,0-.122-1.605l-2.018-3.02a4.082,4.082,0,0,1,2.416-6.23l5.867-1.4v-4.085h-9.142l-2.709,4.051c-0.757,1.045-5.328,4.119-8.625,4.119H611.714v-4.085h30.715c1.532,0,4.566-1.8,5.319-2.453l0.246-.368c-2.173-4.619-4.561-9.461-5.105-10.186a6.149,6.149,0,0,0-3.033-1.654l-0.992-.142a126.514,126.514,0,0,0-18.959-1.537v-4.085a132.044,132.044,0,0,1,19.542,1.579l0.982,0.14a10.077,10.077,0,0,1,5.613,3.092c0.747,0.884,2.935,5.329,4.634,8.891a4.069,4.069,0,0,1,3.087-1.447h9.142a4.1,4.1,0,0,1,4.1,4.085v4.085A4.1,4.1,0,0,1,663.2,716.926Zm-8.485,28.337a8.182,8.182,0,0,1-2.047.269H640.381v4.085h14.333v-4.354Zm-45.047-41.294v53.818a10.239,10.239,0,0,1-20.477,0V703.969A14.8,14.8,0,0,1,581,690.383V686.3c0-8.284,5.167-14.3,12.286-14.3a2.045,2.045,0,0,1,2.047,2.043V686.3h8.191V674.043A2.045,2.045,0,0,1,605.571,672c7.119,0,12.286,6.014,12.286,14.3v4.085A14.8,14.8,0,0,1,609.667,703.969Zm4.095-17.671c0-4.277-1.938-8.838-6.143-9.956v12a2.045,2.045,0,0,1-2.048,2.043H593.286a2.045,2.045,0,0,1-2.048-2.043v-12c-4.205,1.118-6.143,5.679-6.143,9.956v4.085a10.633,10.633,0,0,0,6.879,10.348,2.047,2.047,0,0,1,1.312,1.907v55.149a6.143,6.143,0,0,0,12.285,0V702.638a2.047,2.047,0,0,1,1.312-1.907,10.633,10.633,0,0,0,6.879-10.348V686.3Zm-16.381,67.4h4.1v4.085h-4.1V753.7Zm40.952-28.6h4.447a11.876,11.876,0,0,0,8.439-3.486l2.895,2.888a15.945,15.945,0,0,1-11.334,4.683h-4.447v-4.085Zm0,12.256H611.714v-4.085h26.619v4.085Z" transform="translate(-581 -672)"/>
</svg>

