<svg xmlns="http://www.w3.org/2000/svg" width="97" height="96" viewBox="0 0 97 96">
  <defs>
    <style>
      .cls-1 {
        fill: #fff;
        fill-rule: evenodd;
      }
    </style>
  </defs>
  <path id="Baby.svg" class="cls-1" d="M95.88,737.516c-2.666,4.566-7.568,5.6-11.894,6.507-1.319.277-2.566,0.539-3.688,0.885a2.14,2.14,0,0,1-2.549-1.089c-0.518-1.047-1.183-2.126-1.887-3.268-2.308-3.745-4.924-7.99-3.416-13.051a7.541,7.541,0,0,1,3.992-4.778,7.643,7.643,0,0,1,6.18-.132,8.042,8.042,0,0,1,4.14,3.932,8.115,8.115,0,0,1,5.722.284A7.4,7.4,0,0,1,95.88,737.516Zm-3.308-4.852a3.344,3.344,0,0,0-1.818-1.982,3.534,3.534,0,0,0-3.847.6,2.146,2.146,0,0,1-2.453.554,2.117,2.117,0,0,1-1.281-2.15,3.493,3.493,0,0,0-2.2-3.19,3.387,3.387,0,0,0-1.3-.256,3.172,3.172,0,0,0-3.132,2.46c-0.97,3.253.941,6.353,2.963,9.635,0.416,0.675.84,1.363,1.24,2.059,0.784-.19,1.579-0.357,2.358-0.521,3.791-.8,7.371-1.55,9.085-4.485A3.288,3.288,0,0,0,92.573,732.664ZM75.945,715.571a2.045,2.045,0,0,1-1.56-.721,4.7,4.7,0,0,0-3.577-1.758,4.594,4.594,0,0,0-.76.1,2.054,2.054,0,0,1-2.415-1.886A26.964,26.964,0,0,0,49.943,688.08a2.059,2.059,0,0,1,1.425-3.864A31.17,31.17,0,0,1,71.522,709a8.792,8.792,0,0,1,5.982,3.17,2.065,2.065,0,0,1-.225,2.9A2.038,2.038,0,0,1,75.945,715.571ZM40.4,687.026a2.06,2.06,0,0,1,.456-4.095,2.587,2.587,0,0,0,2.081-.582,2.806,2.806,0,0,0,.861-2.135,4.156,4.156,0,0,0-4.476-4.094,6.127,6.127,0,0,0-6.108,6.131c0,5.152,3.5,9.037,8.147,9.037a2.06,2.06,0,0,1,0,4.12,11.827,11.827,0,0,1-8.706-3.773,13.6,13.6,0,0,1-3.546-9.384A10.244,10.244,0,0,1,39.319,672a8.218,8.218,0,0,1,8.58,8.214,6.969,6.969,0,0,1-2.23,5.207A6.66,6.66,0,0,1,40.4,687.026Zm-9.61,19.885v4.12a2.052,2.052,0,1,1-4.1,0v-4.12A2.052,2.052,0,1,1,30.786,706.911ZM26.4,689.773A26.651,26.651,0,0,0,12.41,711.3,2.054,2.054,0,0,1,10,713.189a4.594,4.594,0,0,0-.76-0.1c-2.829,0-5.131,2.772-5.131,6.18s2.3,6.181,5.131,6.181a4.542,4.542,0,0,0,2.875-1.092,2.048,2.048,0,0,1,3.126.645,27.669,27.669,0,0,0,24.786,14.868,29,29,0,0,0,3.417-.2,2.06,2.06,0,0,1,.484,4.092,33.119,33.119,0,0,1-3.9.231,31.814,31.814,0,0,1-27.351-15.167,8.3,8.3,0,0,1-3.436.745c-5.093,0-9.236-4.621-9.236-10.3,0-5.411,3.761-9.862,8.521-10.27a30.816,30.816,0,0,1,15.907-22.845A2.059,2.059,0,0,1,26.4,689.773ZM51.31,713.092a2.057,2.057,0,0,1-2.052-2.061v-4.12a2.052,2.052,0,1,1,4.1,0v4.12A2.057,2.057,0,0,1,51.31,713.092Zm3.759,12.993a18.087,18.087,0,0,1-15.047,7.609,18.089,18.089,0,0,1-15.045-7.606,2.055,2.055,0,1,1,3.412-2.29,13.952,13.952,0,0,0,11.633,5.775A13.951,13.951,0,0,0,51.656,723.8,2.055,2.055,0,1,1,55.069,726.085Zm-4.426,22.231h0a8.04,8.04,0,0,1,6.075-.247,8.469,8.469,0,0,1,4.348-4.407,7.568,7.568,0,0,1,6.37.141,8.042,8.042,0,0,1,4.114,5.148c1.569,5.5-1.172,10.146-3.59,14.245-0.747,1.266-1.452,2.461-2,3.627a2.05,2.05,0,0,1-1.844,1.192,1.959,1.959,0,0,1-.61-0.1c-1.2-.385-2.517-0.675-3.917-0.983-4.532-.995-9.67-2.124-12.443-7.086a8.374,8.374,0,0,1-.778-6.638A8.014,8.014,0,0,1,50.643,748.316Zm0.054,9.4c1.857,3.323,5.686,4.164,9.739,5.054,0.872,0.191,1.761.387,2.635,0.611,0.444-.813.919-1.617,1.383-2.406,2.163-3.665,4.205-7.128,3.155-10.811a3.833,3.833,0,0,0-1.936-2.507,3.636,3.636,0,0,0-3.019-.06,4.082,4.082,0,0,0-2.453,3.736,2.142,2.142,0,0,1-1.233,2.162,2,2,0,0,1-2.361-.558,3.826,3.826,0,0,0-4.3-.719h0a3.85,3.85,0,0,0-2.033,2.316A3.983,3.983,0,0,0,50.7,757.712Z" transform="translate(0 -672)"/>
</svg>

