<svg xmlns="http://www.w3.org/2000/svg" width="96" height="74" viewBox="0 0 96 74">
  <defs>
    <style>
      .cls-1 {
        fill: #fff;
        fill-rule: evenodd;
      }
    </style>
  </defs>
  <path id="Scholl.svg" class="cls-1" d="M188,742H158.814a4.836,4.836,0,0,0-3.4,1.413A8.75,8.75,0,0,1,149.176,746H138.822a8.748,8.748,0,0,1-6.23-2.583A4.784,4.784,0,0,0,129.184,742H100a4,4,0,0,1-4-4V686a4,4,0,0,1,4-4h2v4h-2v52h29.184a8.748,8.748,0,0,1,6.23,2.583A4.784,4.784,0,0,0,138.822,742h10.354a4.839,4.839,0,0,0,3.4-1.413A8.867,8.867,0,0,1,158.814,738H188V686h-2v-4h2a4,4,0,0,1,4,4v52A4,4,0,0,1,188,742Zm-38.221-5.085L149.221,738H139l-0.6-.8A7.852,7.852,0,0,0,132,734H104V676h8v-4h16v4h4c5.409,0,9.66,2.357,12,6.277,2.34-3.92,6.591-6.277,12-6.277h28v58H156C151.85,734,150.557,735.4,149.779,736.915ZM124,676h-8v18.263l4-2.666,4,2.666V676Zm18,14c0-4.834-2.627-10-10-10h-4v21.737l-8-5.334-8,5.334V680h-4v50h24a11.691,11.691,0,0,1,8.945,4H142V690Zm38-10H156c-7.373,0-10,5.166-10,10v44h0.867c2.436-3.56,6.321-4,9.133-4h24V680Z" transform="translate(-96 -672)"/>
</svg>

