<svg xmlns="http://www.w3.org/2000/svg" width="94.062" height="96" viewBox="0 0 94.062 96">
  <defs>
    <style>
      .cls-1 {
        fill: #fff;
        fill-rule: evenodd;
      }
    </style>
  </defs>
  <path id="Basket_2.svg" class="cls-1" d="M380.654,708.7l-8.766,22.145A8.012,8.012,0,0,1,364.427,736H322.139c1.3,3.848,2.222,6.449,2.545,7.145,1.107,2.388,2.1,2.855,3.455,2.855H366.81v4H328.139c-4.194,0-6.048-2.951-7.076-5.172-1.378-2.974-11.043-32.773-15.135-45.447a1.988,1.988,0,0,0-1.9-1.381H286.977v-4H304.03a5.971,5.971,0,0,1,5.7,4.15c3.9,12.087,8.1,24.951,11.068,33.85h43.633a4.011,4.011,0,0,0,3.736-2.6l8.767-22.142a0.906,0.906,0,0,0,.052-0.635A2.94,2.94,0,0,0,374.79,706H314.919v-4H374.79c2.446,0,4.44.855,5.473,2.35A4.609,4.609,0,0,1,380.654,708.7ZM368.806,684h-23.95v6h11.975v10H352.84v-6H324.9v6h-3.992V690h7.984V672h35.925v8H372.8v20h-3.992V684Zm-7.983-8H332.881v14h7.984V680h19.958v-4Zm-35.94,75.971a8.015,8.015,0,1,1-8,8.015A8.015,8.015,0,0,1,324.883,751.971Zm0,12.029a4.015,4.015,0,1,0-4.006-4.014A4.015,4.015,0,0,0,324.883,764Zm35.953-12.029a8.015,8.015,0,1,1-8,8.015A8.016,8.016,0,0,1,360.836,751.971Zm0,12.029a4.015,4.015,0,1,0-4-4.014A4.015,4.015,0,0,0,360.836,764Z" transform="translate(-286.969 -672)"/>
</svg>

