<svg xmlns="http://www.w3.org/2000/svg" width="96" height="76" viewBox="0 0 96 76">
  <defs>
    <style>
      .cls-1 {
        fill: #fff;
        fill-rule: evenodd;
      }
    </style>
  </defs>
  <path id="Basket_1.svg" class="cls-1" d="M282,711.991h-0.4L275,741.726a7.952,7.952,0,0,1-7.809,6.264H212.813A7.953,7.953,0,0,1,205,741.727L198.4,711.991H198a6.006,6.006,0,0,1-6-6v-4a6.007,6.007,0,0,1,6-6h14v4H198a2,2,0,0,0-2,2v4a2,2,0,0,0,2,2h12v4h-7.507l6.415,28.868a3.977,3.977,0,0,0,3.905,3.131h54.374a3.977,3.977,0,0,0,3.9-3.131l6.415-28.868H270v-4h12a2,2,0,0,0,2-2v-4a2,2,0,0,0-2-2H268v-4h14a6.007,6.007,0,0,1,6,6v4A6.006,6.006,0,0,1,282,711.991Zm-17.607,2.039a2,2,0,0,1,1.568,2.353l-4,20a2,2,0,0,1-3.922-.785l4-20A2,2,0,0,1,264.393,714.03Zm0.35-8.182a2,2,0,0,1-2.6-1.114l-12-30a2,2,0,1,1,3.714-1.486l12,30A2,2,0,0,1,264.743,705.848ZM252.2,714a2,2,0,0,1,1.791,2.189l-2,20a2,2,0,0,1-1.988,1.8q-0.1,0-.2-0.009a2,2,0,0,1-1.791-2.19l2-20A2,2,0,0,1,252.2,714Zm-10.2,1.99v20a2,2,0,0,1-4,0v-20A2,2,0,0,1,242,715.991Zm-12.01-.2,2,20a2,2,0,0,1-1.791,2.19c-0.067.006-.135,0.009-0.2,0.009a2,2,0,0,1-1.988-1.8l-2-20A2,2,0,1,1,229.99,715.792Zm-5.99-19.8h32v4H224v-4Zm-8.393,18.039a2,2,0,0,1,2.354,1.568l4,20a2,2,0,0,1-3.922.785l-4-20A2,2,0,0,1,215.607,714.03Zm2.25-9.3a2,2,0,1,1-3.714-1.486l12-30a2,2,0,1,1,3.714,1.486Z" transform="translate(-192 -672)"/>
</svg>

